<?xml version="1.0" encoding="utf-8"?>
<svg width="3em" height="3em" viewBox="0 0 20 20" xmlns="http://www.w3.org/2000/svg">
  <path d="M 19.375 9.987 A 9.5 9.5 0 0 1 9.875 19.487 A 9.5 9.5 0 0 1 0.375 9.987 A 9.5 9.5 0 0 1 9.875 0.487 A 9.5 9.5 0 0 1 19.375 9.987 Z" style="fill: rgb(255, 255, 255); fill-rule: nonzero; filter: none;"/>
  <path d="M 4.493 9.995 C 4.493 10.965 4.636 11.713 4.921 12.239 C 5.206 12.764 5.631 13.027 6.196 13.027 C 6.855 13.027 7.343 12.501 7.661 11.45 L 9.327 11.785 C 8.786 13.613 7.736 14.527 6.177 14.527 C 5.034 14.527 4.163 14.142 3.563 13.373 C 2.963 12.604 2.662 11.478 2.662 9.995 C 2.662 7.025 3.818 5.54 6.129 5.54 C 6.886 5.54 7.519 5.751 8.03 6.173 C 8.541 6.596 8.916 7.223 9.156 8.055 L 7.496 8.482 C 7.378 8.025 7.201 7.67 6.965 7.418 C 6.729 7.166 6.458 7.04 6.153 7.04 C 5.046 7.04 4.493 8.025 4.493 9.995 Z M 16.643 8.43 C 16.643 9.008 16.519 9.515 16.271 9.952 C 16.023 10.39 15.664 10.727 15.194 10.964 C 14.724 11.202 14.162 11.32 13.506 11.32 L 12.304 11.32 L 12.304 14.398 L 10.504 14.398 L 10.504 5.676 L 13.434 5.676 C 14.479 5.676 15.275 5.909 15.822 6.377 C 16.37 6.845 16.643 7.529 16.643 8.43 Z M 14.83 8.462 C 14.83 7.992 14.697 7.657 14.431 7.457 C 14.165 7.256 13.765 7.156 13.232 7.156 L 12.304 7.156 L 12.304 9.853 L 13.281 9.853 C 13.818 9.853 14.21 9.735 14.458 9.5 C 14.706 9.265 14.83 8.919 14.83 8.462 Z" style="fill: rgb(231, 127, 35); paint-order: stroke; stroke-linejoin: round; stroke-width: 0.990965px; transform-origin: 2.174px 3.373px;"/>
</svg>